<svg xmlns="http://www.w3.org/2000/svg" width="18" height="14.143" viewBox="0 0 18 14.143">
  <g id="envelope" transform="translate(0 -54.82)">
    <g id="Group_6" data-name="Group 6" transform="translate(0 54.82)">
      <path id="Path_15" data-name="Path 15" d="M1.728,59.179q.342.241,2.059,1.431t2.632,1.833q.1.07.427.306t.542.382q.216.146.522.326a3.031,3.031,0,0,0,.578.271,1.592,1.592,0,0,0,.5.09h.02a1.593,1.593,0,0,0,.5-.09,3.034,3.034,0,0,0,.578-.271q.306-.181.522-.326t.542-.382q.326-.236.427-.306l4.7-3.265a4.772,4.772,0,0,0,1.225-1.235A2.653,2.653,0,0,0,18,56.427a1.621,1.621,0,0,0-1.607-1.607H1.607a1.434,1.434,0,0,0-1.19.522A2.028,2.028,0,0,0,0,56.648a2.346,2.346,0,0,0,.552,1.371A4.986,4.986,0,0,0,1.728,59.179Z" transform="translate(0 -54.82)" fill="gray"/>
      <path id="Path_16" data-name="Path 16" d="M17,185.311q-3.294,2.23-5,3.465-.573.422-.929.658a5.734,5.734,0,0,1-.949.482,2.89,2.89,0,0,1-1.1.246H8.99a2.891,2.891,0,0,1-1.1-.246,5.737,5.737,0,0,1-.949-.482q-.356-.236-.929-.658-1.356-.994-4.992-3.465A5.321,5.321,0,0,1,0,184.437v7.975a1.547,1.547,0,0,0,.472,1.135,1.547,1.547,0,0,0,1.135.472H16.393A1.612,1.612,0,0,0,18,192.412v-7.975A5.538,5.538,0,0,1,17,185.311Z" transform="translate(0 -179.877)" fill="gray"/>
    </g>
  </g>
</svg>
