<svg xmlns="http://www.w3.org/2000/svg" width="176.807" height="40.49" viewBox="0 0 176.807 40.49">
  <g id="Group_140559" data-name="Group 140559" transform="translate(-99.001 -136.718)">
    <g id="Group_140558" data-name="Group 140558" transform="translate(99.001 136.718)">
      <g id="Group_140554" data-name="Group 140554" transform="translate(0.184 24.095)">
        <path id="Path_68383" data-name="Path 68383" d="M99.4,188.352l2.075,0a1.512,1.512,0,0,1,1.1.36.91.91,0,0,1,.26.66v.012a.929.929,0,0,1-.625.9.982.982,0,0,1,.8.99v.012c0,.7-.562,1.115-1.533,1.114l-2.087,0Zm2.334,1.252c0-.232-.167-.348-.508-.349h-.734v.711h.7c.347,0,.538-.115.538-.352Zm.16,1.514c0-.225-.173-.364-.549-.365h-.855v.746h.867c.347,0,.538-.132.538-.369Z" transform="translate(-99.394 -188.295)" fill="#fff"/>
        <path id="Path_68384" data-name="Path 68384" d="M109.365,190.9l-1.54-2.534,1.277,0,.83,1.475.841-1.473,1.254,0-1.541,2.512,0,1.532h-1.122Z" transform="translate(-103.881 -188.301)" fill="#fff"/>
        <path id="Path_68385" data-name="Path 68385" d="M122.74,188.384l3.237,0v.983l-2.116,0v.688l1.914,0v.93l-1.914,0,0,1.445h-1.121Z" transform="translate(-111.817 -188.312)" fill="#fff"/>
        <path id="Path_68386" data-name="Path 68386" d="M131.219,190.342v-.011a2.181,2.181,0,0,1,4.359-.006v.012a2.181,2.181,0,0,1-4.359.005Zm3.208,0v-.011a1.043,1.043,0,0,0-1.033-1.094,1.032,1.032,0,0,0-1.03,1.08v.011a1.054,1.054,0,0,0,1.039,1.094A1.031,1.031,0,0,0,134.427,190.347Z" transform="translate(-116.333 -188.23)" fill="#fff"/>
        <path id="Path_68387" data-name="Path 68387" d="M142.518,188.412l1.913,0a1.781,1.781,0,0,1,1.318.435,1.283,1.283,0,0,1,.357.942v.011a1.275,1.275,0,0,1-.834,1.248l.964,1.412-1.289,0-.813-1.227h-.5v1.225h-1.121Zm1.864,1.945c.376,0,.6-.184.6-.479v-.012c0-.323-.237-.486-.607-.486h-.74v.977Z" transform="translate(-122.344 -188.327)" fill="#fff"/>
        <path id="Path_68388" data-name="Path 68388" d="M151.863,190.371v-.012a2.074,2.074,0,0,1,2.13-2.1,1.989,1.989,0,0,1,1.716.841l-.845.652a1.092,1.092,0,0,0-.884-.475,1.006,1.006,0,0,0-.967,1.074v.011a1,1,0,0,0,.964,1.082,1.113,1.113,0,0,0,.914-.49l.843.6a2.126,2.126,0,0,1-3.872-1.184Z" transform="translate(-127.321 -188.245)" fill="#fff"/>
        <path id="Path_68389" data-name="Path 68389" d="M161.927,188.439l3.254,0v.948l-2.144,0v.618l1.942,0v.885l-1.942,0v.642l2.174,0v.954l-3.283,0Z" transform="translate(-132.674 -188.341)" fill="#fff"/>
        <path id="Path_68390" data-name="Path 68390" d="M175.376,188.458h1.185l.963,1.568.967-1.565,1.185,0-.006,4.046h-1.116l0-2.324-1.037,1.582H177.5l-1.027-1.58,0,2.318h-1.1Z" transform="translate(-139.833 -188.351)" fill="#fff"/>
        <path id="Path_68391" data-name="Path 68391" d="M186.563,190.419v-.011a2.181,2.181,0,0,1,4.358-.005v.011a2.181,2.181,0,0,1-4.358.005Zm3.208,0v-.012a1.044,1.044,0,0,0-1.033-1.094,1.032,1.032,0,0,0-1.03,1.08v.011a1.055,1.055,0,0,0,1.039,1.094A1.031,1.031,0,0,0,189.771,190.424Z" transform="translate(-145.79 -188.271)" fill="#fff"/>
        <path id="Path_68392" data-name="Path 68392" d="M198.232,189.473l-1.208,0v-.983l3.543.005v.983l-1.214,0,0,3.064-1.121,0Z" transform="translate(-151.358 -188.367)" fill="#fff"/>
        <path id="Path_68393" data-name="Path 68393" d="M205.736,190.446v-.011a2.181,2.181,0,0,1,4.359-.006v.012a2.181,2.181,0,0,1-4.359.005Zm3.208,0v-.011a1.043,1.043,0,0,0-1.033-1.094,1.032,1.032,0,0,0-1.03,1.08v.011a1.055,1.055,0,0,0,1.039,1.094A1.031,1.031,0,0,0,208.944,190.451Z" transform="translate(-155.995 -188.285)" fill="#fff"/>
        <path id="Path_68394" data-name="Path 68394" d="M217.035,188.516l1.913,0a1.781,1.781,0,0,1,1.318.435,1.283,1.283,0,0,1,.357.943v.011a1.275,1.275,0,0,1-.834,1.248l.964,1.412-1.289,0-.813-1.227h-.5v1.226h-1.121Zm1.864,1.945c.376,0,.6-.184.6-.479v-.011c0-.324-.237-.486-.607-.487h-.74v.977Z" transform="translate(-162.006 -188.382)" fill="#fff"/>
        <path id="Path_68395" data-name="Path 68395" d="M226,191.9l.625-.745a2.086,2.086,0,0,0,1.312.488c.306,0,.469-.1.469-.277v-.012c0-.174-.133-.254-.687-.394-.856-.2-1.526-.435-1.524-1.268v-.012c0-.757.6-1.294,1.568-1.293a2.537,2.537,0,0,1,1.664.54l-.562.791a1.931,1.931,0,0,0-1.132-.4c-.272,0-.4.1-.405.259v.012c0,.179.138.272.7.394.925.2,1.5.505,1.5,1.262v.011c0,.827-.655,1.317-1.638,1.316A2.836,2.836,0,0,1,226,191.9Z" transform="translate(-166.783 -188.312)" fill="#fff"/>
      </g>
      <g id="Group_140555" data-name="Group 140555" transform="translate(0.444 33.907)">
        <path id="Path_68396" data-name="Path 68396" d="M101.99,210.521l-1.828,0c-.167,0-.211-.053-.211-.22v-.685c0-.167.044-.211.211-.211l4.9.007c.167,0,.211.044.211.211v.685c0,.167-.044.22-.211.219l-1.828,0-.007,4.826c0,.167-.044.211-.211.211h-.827c-.167,0-.211-.044-.21-.211Z" transform="translate(-99.951 -209.311)" fill="#fff"/>
        <path id="Path_68397" data-name="Path 68397" d="M122.434,209.644c0-.167.044-.211.211-.211l2.171,0c1,0,2.215.434,2.212,1.849a1.67,1.67,0,0,1-1.321,1.739l1.526,2.3c.1.2,0,.273-.185.273h-.765a.419.419,0,0,1-.36-.211l-1.482-2.243h-.765l0,2.241c0,.167-.044.211-.211.211h-.826c-.167,0-.211-.044-.211-.211Zm1.247.828,0,1.626h1.09c.695,0,1.046-.271,1.047-.816s-.351-.809-1.045-.811Z" transform="translate(-111.913 -209.328)" fill="#fff"/>
        <path id="Path_68398" data-name="Path 68398" d="M145.857,209.419c.071-.132.1-.211.167-.211h.026c.071,0,.1.088.175.211l3.016,5.858a.144.144,0,0,1-.132.211h-.976c-.141,0-.176-.035-.272-.211l-.517-1.055-2.619,0-.52,1.054c-.1.167-.141.211-.282.211h-.967a.139.139,0,0,1-.131-.211Zm-.708,3.734,1.784,0-.885-1.847h-.018Z" transform="translate(-122.76 -209.208)" fill="#fff"/>
        <path id="Path_68399" data-name="Path 68399" d="M167.633,215.772c-.061,0-.1-.079-.167-.211l-3.016-5.858a.139.139,0,0,1,.132-.211h.967c.141,0,.185.044.281.211l1.823,3.685v.009l1.833-3.689c.1-.176.132-.211.273-.211h.976a.136.136,0,0,1,.131.211l-3.032,5.85c-.079.123-.106.21-.176.21Z" transform="translate(-134.27 -209.359)" fill="#fff"/>
        <path id="Path_68400" data-name="Path 68400" d="M189.192,209.738c0-.167.044-.211.211-.211l3.973.006c.167,0,.211.044.211.211v.642c0,.167-.044.21-.211.21l-2.936,0,0,1.459,2.813,0c.167,0,.211.044.211.211v.642c0,.167-.044.211-.211.211l-2.813,0,0,1.5,2.936,0c.167,0,.211.044.211.211v.642c0,.167-.044.211-.211.21l-3.973-.005c-.167,0-.211-.044-.21-.211Z" transform="translate(-147.446 -209.378)" fill="#fff"/>
        <path id="Path_68401" data-name="Path 68401" d="M210.611,209.768c0-.167.044-.211.211-.211h.827c.167,0,.21.044.21.211l-.007,4.879,2.575,0c.167,0,.211.044.211.211v.642c0,.167-.044.211-.211.21l-3.612-.005c-.167,0-.211-.044-.211-.211Z" transform="translate(-158.846 -209.394)" fill="#fff"/>
        <path id="Path_68402" data-name="Path 68402" d="M243.477,209.69c-.07-.167-.044-.211.106-.211h1.011c.167,0,.229.044.272.212l1.217,3.456,1.332-3.567c.053-.141.106-.211.15-.211h.158c.062,0,.088.035.158.211l1.313,3.571,1.227-3.453a.271.271,0,0,1,.273-.211H251.7c.15,0,.176.044.105.211l-2.338,5.851c-.062.14-.114.211-.15.211h-.1c-.044,0-.088-.07-.149-.211l-1.436-3.791-1.447,3.786c-.062.141-.106.211-.15.211h-.1c-.035,0-.087-.07-.149-.211Z" transform="translate(-176.323 -209.294)" fill="#fff"/>
        <path id="Path_68403" data-name="Path 68403" d="M272.416,214.844a3.191,3.191,0,0,1,2.24-5.438,3.037,3.037,0,0,1,2.223.944,3.183,3.183,0,0,1-.007,4.5,3.109,3.109,0,0,1-4.456-.006Zm3.6-.777a2.349,2.349,0,0,0,0-2.944,1.677,1.677,0,0,0-1.371-.635,1.708,1.708,0,0,0-1.372.639,2.308,2.308,0,0,0,0,2.936,1.724,1.724,0,0,0,1.37.635A1.677,1.677,0,0,0,276.021,214.067Z" transform="translate(-191.252 -209.313)" fill="#fff"/>
        <path id="Path_68404" data-name="Path 68404" d="M296.7,209.888c0-.167.044-.211.211-.211l2.171,0c1,0,2.214.434,2.212,1.849a1.671,1.671,0,0,1-1.32,1.739l1.526,2.3c.1.2,0,.272-.185.272h-.765a.421.421,0,0,1-.36-.211l-1.482-2.244h-.765l0,2.241c0,.167-.044.211-.211.21H296.9c-.167,0-.211-.044-.211-.211Zm1.247.828,0,1.626h1.09c.694,0,1.046-.271,1.047-.816s-.351-.809-1.045-.81Z" transform="translate(-204.668 -209.458)" fill="#fff"/>
        <path id="Path_68405" data-name="Path 68405" d="M318.516,209.918c0-.167.044-.211.211-.211h.827c.167,0,.21.044.21.211l-.007,4.878,2.575,0c.168,0,.211.044.211.211v.642c0,.167-.044.21-.211.21l-3.612-.005c-.167,0-.211-.044-.21-.211Z" transform="translate(-216.279 -209.474)" fill="#fff"/>
        <path id="Path_68406" data-name="Path 68406" d="M338.639,209.946c0-.167.044-.211.211-.211l2.233,0a3.065,3.065,0,0,1,2.214.891,3.077,3.077,0,0,1-.006,4.377,3.063,3.063,0,0,1-2.216.885l-2.233,0c-.167,0-.21-.044-.21-.211Zm1.24,4.907h1.187a1.7,1.7,0,0,0,1.364-.6,2.161,2.161,0,0,0,.511-1.441,2.128,2.128,0,0,0-.507-1.442,1.7,1.7,0,0,0-1.362-.6l-1.187,0Z" transform="translate(-226.989 -209.488)" fill="#fff"/>
        <path id="Path_68407" data-name="Path 68407" d="M361.766,216.837c0-.167.044-.21.211-.21l2.427,0c.167,0,.211.044.21.211v.484c0,.167-.044.211-.211.211l-2.427,0c-.167,0-.211-.044-.211-.211Z" transform="translate(-239.303 -213.157)" fill="#fff"/>
        <path id="Path_68408" data-name="Path 68408" d="M384.511,214.737c.114.132.131.167.026.3a3.4,3.4,0,0,1-2.3.9,3.191,3.191,0,0,1,.009-6.381,3.4,3.4,0,0,1,2.3.908c.1.115.087.167-.027.3l-.475.518c-.132.132-.194.123-.3.017a1.986,1.986,0,0,0-1.5-.661,1.7,1.7,0,0,0-1.372.631,2.318,2.318,0,0,0,0,2.944,1.7,1.7,0,0,0,1.37.644,2.023,2.023,0,0,0,1.513-.666.211.211,0,0,1,.141-.079c.044,0,.1.035.158.106Z" transform="translate(-248.515 -209.394)" fill="#fff"/>
        <path id="Path_68409" data-name="Path 68409" d="M402.483,210.036c0-.167.044-.211.211-.211h.827c.167,0,.211.044.211.211l-.007,4.879,2.575,0c.167,0,.211.044.211.211v.642c0,.167-.044.211-.211.21l-3.612-.005c-.167,0-.211-.044-.211-.211Z" transform="translate(-260.971 -209.536)" fill="#fff"/>
        <path id="Path_68410" data-name="Path 68410" d="M424.215,209.807c.071-.131.1-.211.167-.211h.027c.07,0,.1.088.175.211l3.016,5.858a.145.145,0,0,1-.132.211h-.975c-.141,0-.176-.036-.273-.211l-.517-1.056-2.62,0-.52,1.054c-.1.167-.141.211-.282.211h-.967a.139.139,0,0,1-.131-.211Zm-.709,3.735,1.785,0-.885-1.847h-.018Z" transform="translate(-270.917 -209.415)" fill="#fff"/>
        <path id="Path_68411" data-name="Path 68411" d="M445.69,214.542c.062-.1.123-.14.167-.14a.421.421,0,0,1,.123.044,3.171,3.171,0,0,0,1.748.5c.782,0,1.178-.245,1.179-.737,0-.536-.421-.7-1.45-.837-1.362-.178-2.037-.75-2.037-1.726a1.942,1.942,0,0,1,.5-1.274,2.306,2.306,0,0,1,1.794-.692,3.635,3.635,0,0,1,1.125.16,4.833,4.833,0,0,1,1.037.5c.131.079.123.167.043.3l-.309.518c-.052.1-.106.149-.167.149a.426.426,0,0,1-.124-.044,2.422,2.422,0,0,0-1.52-.5c-.782,0-1.169.28-1.17.842,0,.484.377.616,1.388.732a3.318,3.318,0,0,1,1.423.441,1.5,1.5,0,0,1,.675,1.372,1.75,1.75,0,0,1-.609,1.335,2.461,2.461,0,0,1-1.7.543,4.059,4.059,0,0,1-2.39-.672c-.132-.079-.123-.158-.044-.3Z" transform="translate(-283.777 -209.461)" fill="#fff"/>
        <path id="Path_68412" data-name="Path 68412" d="M467.109,214.572c.062-.1.123-.14.167-.14a.415.415,0,0,1,.123.044,3.176,3.176,0,0,0,1.749.5c.782,0,1.178-.245,1.179-.737,0-.536-.421-.7-1.449-.837-1.362-.178-2.038-.75-2.037-1.726a1.938,1.938,0,0,1,.5-1.274,2.3,2.3,0,0,1,1.793-.692,3.635,3.635,0,0,1,1.125.16,4.825,4.825,0,0,1,1.037.5c.131.08.123.167.043.3l-.308.518c-.053.1-.106.149-.167.149a.419.419,0,0,1-.123-.044,2.421,2.421,0,0,0-1.52-.5c-.783,0-1.17.28-1.171.842,0,.484.377.616,1.388.732a3.312,3.312,0,0,1,1.423.441,1.5,1.5,0,0,1,.675,1.372,1.749,1.749,0,0,1-.608,1.335,2.457,2.457,0,0,1-1.7.542,4.057,4.057,0,0,1-2.39-.671c-.131-.079-.123-.158-.044-.3Z" transform="translate(-295.178 -209.477)" fill="#fff"/>
      </g>
      <g id="Group_140556" data-name="Group 140556" transform="translate(66.363 26.316)">
        <rect id="Rectangle_31908" data-name="Rectangle 31908" width="0.578" height="109.238" transform="translate(0 0.578) rotate(-89.92)" fill="#fff"/>
      </g>
      <g id="Group_140557" data-name="Group 140557" transform="translate(0)">
        <path id="Path_68413" data-name="Path 68413" d="M243.44,142.584l-.018,12.693-5.208-.007.016-11.38Zm-5.2-5.672,5.208.007-.006,4.229-5.211,1.306Zm-5.4,18.35-1.473,0-2.429,0-1.672,0a3.32,3.32,0,0,1-2.479-1.338c-2.853-3.454-5.871-7.024-8.831-10.607a.941.941,0,0,0-.722-.412.686.686,0,0,0-.7.753l-.016,11.587-5.208-.008.024-17.052a1.31,1.31,0,0,1,1.308-1.3l1.473,0,2.429,0,1.672,0a3.321,3.321,0,0,1,2.479,1.338c3.008,3.641,5.822,6.964,8.831,10.607a.941.941,0,0,0,.722.412.687.687,0,0,0,.7-.753l.016-11.587,5.209.008-.024,17.052A1.31,1.31,0,0,1,232.844,155.262Zm13.9.02,5.906.008,6.9-12c.461-.8.949-.811,1.437.024l4.458,7.8L260.5,151.1l-2.378,4.193,9.723.014h.361l5.546.007-9.809-17.16a2.04,2.04,0,0,0-1.666-1.213l-4.011-.006a1.97,1.97,0,0,0-1.62,1.206Zm-67.748-.094,5.907.008,6.9-12c.461-.8.949-.811,1.438.024l4.457,7.8-4.945-.007-2.378,4.193,9.723.014h.361l5.546.007L196.2,138.064a2.04,2.04,0,0,0-1.666-1.213l-4.011-.006a1.972,1.972,0,0,0-1.62,1.206Zm-26.818-18.4,19.164.027a3.591,3.591,0,0,1,3.575,3.586l0,2.329A3.592,3.592,0,0,1,172.785,146a3.593,3.593,0,0,1,2.118,3.272l0,2.329a3.591,3.591,0,0,1-3.586,3.576l-19.164-.027v-.036l.006-4.159.009-6.574,3.835.006-.009,6.573,11.928.017a1.742,1.742,0,0,0,1.739-1.734h0a1.742,1.742,0,0,0-1.734-1.739l-9.238-.013,0-3.018,9.238.013a1.742,1.742,0,0,0,1.74-1.734h0a1.742,1.742,0,0,0-1.734-1.739l-15.763-.022Zm-26.667-.037,18.645.026a4.023,4.023,0,0,1,4.006,4.017l0,3.038a4.023,4.023,0,0,1-4.017,4.006,4.023,4.023,0,0,1,4.006,4.017l0,3.038c0,.083,0,.167-.008.248l-5.2-.007,0-3.577a1.626,1.626,0,0,0-1.62-1.625l-9-.013a1.627,1.627,0,0,0-1.624,1.62l-.005,3.577-5.206-.007.01-7.3,0-2.1,15.067.021a2.383,2.383,0,1,0,.007-4.766l-15.067-.021Zm-21.318-.03.021,11.208a1.91,1.91,0,0,0,1.9,1.907l8.34.012a1.91,1.91,0,0,0,1.907-1.9l.015-11.208,5.209.008-.018,13.113a5.217,5.217,0,0,1-5.216,5.2l-12.15-.017A5.217,5.217,0,0,1,99,149.83l.018-13.112Z" transform="translate(-99.001 -136.718)" fill="#fff" fill-rule="evenodd"/>
      </g>
    </g>
  </g>
</svg>
