<svg xmlns="http://www.w3.org/2000/svg" width="18.012" height="18" viewBox="0 0 18.012 18">
  <g id="phone-receiver" transform="translate(0 -0.188)">
    <g id="Group_5" data-name="Group 5" transform="translate(0 0.188)">
      <path id="Path_14" data-name="Path 14" d="M18,14.393a.871.871,0,0,1-.267.763L15.2,17.673a1.427,1.427,0,0,1-.448.324,1.852,1.852,0,0,1-.543.172q-.019,0-.115.01t-.248.01a8.79,8.79,0,0,1-1.173-.124,8.906,8.906,0,0,1-1.983-.61A16.645,16.645,0,0,1,8.031,16a19.832,19.832,0,0,1-3.165-2.669,20.894,20.894,0,0,1-2.212-2.517A17.933,17.933,0,0,1,1.243,8.587a11.964,11.964,0,0,1-.8-1.85,9.813,9.813,0,0,1-.362-1.43A4.723,4.723,0,0,1,0,4.364q.019-.343.019-.381a1.853,1.853,0,0,1,.172-.543,1.429,1.429,0,0,1,.324-.448L3.054.455a.84.84,0,0,1,.61-.267A.711.711,0,0,1,4.1.331a1.326,1.326,0,0,1,.324.353l2.04,3.871a.928.928,0,0,1,.1.667,1.188,1.188,0,0,1-.324.61L5.3,6.766a.318.318,0,0,0-.067.124.471.471,0,0,0-.029.143,3.443,3.443,0,0,0,.343.915,8.4,8.4,0,0,0,.706,1.115A12.385,12.385,0,0,0,7.611,10.58a12.63,12.63,0,0,0,1.525,1.363,8.809,8.809,0,0,0,1.115.715,2.965,2.965,0,0,0,.686.276l.238.048a.454.454,0,0,0,.124-.029.318.318,0,0,0,.124-.067l1.087-1.106a1.168,1.168,0,0,1,.8-.305,1,1,0,0,1,.515.114h.019l3.68,2.174A.959.959,0,0,1,18,14.393Z" transform="translate(0 -0.188)" fill="gray"/>
    </g>
  </g>
</svg>
